<svg xmlns="http://www.w3.org/2000/svg" viewBox="0 0 180 60"><defs><style>.cls-1{fill:#0070c0;}.cls-2{fill:#fff;}</style></defs><g id="Layer_2" data-name="Layer 2"><g id="Layer_1-2" data-name="Layer 1"><ellipse class="cls-1" cx="90" cy="30" rx="90" ry="30"/><path class="cls-2" d="M41.34,29.16h9.77v12.7H46.75v-3c0,.84-.59,1.63-1.79,2.38a9.22,9.22,0,0,1-5,1.28,9.79,9.79,0,0,1-7.46-3.14q-3.19-3.41-3.2-9.28A13.55,13.55,0,0,1,32,21.4a10.41,10.41,0,0,1,8.65-3.87A10.79,10.79,0,0,1,48.4,20.3,8.35,8.35,0,0,1,51,25.57H46.08a2.23,2.23,0,0,0-.33-1,5.64,5.64,0,0,0-.94-1.31,6.14,6.14,0,0,0-1.62-1.13,6.33,6.33,0,0,0-7,1.52q-2,2.27-2,6.52t2.13,6.42A6.45,6.45,0,0,0,41,38.24a7,7,0,0,0,3.35-.8,4.48,4.48,0,0,0,2.43-4.32H41.34Z"/><path class="cls-2" d="M67.55,42H62.68v-9L54.43,18.08h5.72l5,10.44,4.57-10.44h5.48L67.55,33Z"/><path class="cls-2" d="M82.83,19.54a11.81,11.81,0,0,1,13.36,0q4.43,3.2,4.42,10.48T96.19,40.43a11.67,11.67,0,0,1-13.36,0Q78.45,37.24,78.45,30T82.83,19.54Zm2.59,17.05a5.91,5.91,0,0,0,8.19,0q2.16-2.13,2.16-6.57t-2.16-6.64a5.91,5.91,0,0,0-8.19,0Q83.29,25.54,83.29,30T85.42,36.59Z"/><path class="cls-2" d="M110.23,31.26V42h-4.87V18.08h4.87v9.07h9.22V18.08h4.84V42h-4.84V31.26Z"/><path class="cls-2" d="M133.49,42h-5.12l8.44-23.87h5.6L150.72,42h-5.24L143.93,37h-8.8Zm3-9h6.06l-2.95-9.44h-.09Z"/></g></g></svg>